<?xml version="1.0" standalone="no"?><!DOCTYPE svg PUBLIC "-//W3C//DTD SVG 1.1//EN" "http://www.w3.org/Graphics/SVG/1.1/DTD/svg11.dtd"><svg t="1545201470236" class="icon" style="" viewBox="0 0 1024 1024" version="1.1" xmlns="http://www.w3.org/2000/svg" p-id="4415" xmlns:xlink="http://www.w3.org/1999/xlink" width="200" height="200"><defs><style type="text/css"></style></defs><path d="M928.845558 421.757952l45.62944 70.99392c7.153664 11.13088 3.109888 25.468928-9.03168 32.0256-12.141568 6.556672-27.783168 2.849792-34.936832-8.27904l-44.27776-68.893696c-49.41824 28.005376-99.275776 49.5104-149.352448 65.000448l35.229696 77.840384c5.400576 11.931648-0.774144 25.616384-13.790208 30.5664-13.01504 4.950016-27.94496-0.709632-33.345536-12.640256l-36.436992-80.50688a22.441984 22.441984 0 0 1-0.78848-1.988608c-49.997824 11.56608-100.14208 17.321984-150.217728 17.747968v87.3216c0 12.918784-11.42272 23.390208-25.515008 23.390208-14.092288 0-25.516032-10.471424-25.516032-23.389184v-87.10144c0-0.54272 0.02048-1.08032 0.059392-1.6128-49.934336-3.134464-99.72736-11.423744-149.163008-24.389632 0.166912 3.328-0.442368 6.740992-1.927168 10.021888l-36.436992 80.50688c-5.400576 11.930624-20.329472 17.590272-33.345536 12.640256-13.016064-4.950016-19.18976-18.634752-13.790208-30.5664l36.435968-80.50688a23.037952 23.037952 0 0 1 3.433472-5.412864c-45.037568-14.46912-89.719808-32.734208-133.881856-54.429696a995.746816 995.746816 0 0 1-16.38912-8.240128l-47.9744 74.642432c-7.15264 11.128832-22.79424 14.835712-34.935808 8.27904-12.141568-6.556672-16.185344-20.89472-9.03168-32.024576l48.120832-74.870784c-17.281024-10.04544-33.57696-20.2496-48.82944-30.461952-11.23328-7.520256-21.10976-14.52544-29.564928-20.840448-5.169152-3.861504-8.773632-6.685696-10.745856-8.298496-10.514432-8.600576-11.431936-23.386112-2.050048-33.024 9.382912-9.638912 25.511936-10.479616 36.026368-1.87904 6.176768 5.052416 18.516992 14.270464 36.434944 26.267648 30.117888 20.164608 64.6656 40.364032 103.04512 59.218944 259.439616 127.455232 533.72416 128.717824 792.379392-79.681536 3.542016-2.863104 3.542016-2.863104 7.084032-5.766144 10.49088-8.624128 26.624-7.820288 36.031488 1.796096 9.409536 9.617408 8.531968 24.403968-1.958912 33.02912-3.73248 3.057664-3.73248 3.057664-7.465984 6.076416-26.23488 21.136384-52.64896 40.257536-79.210496 57.439232z" p-id="4416"></path></svg>