<?xml version="1.0" standalone="no"?><!DOCTYPE svg PUBLIC "-//W3C//DTD SVG 1.1//EN" "http://www.w3.org/Graphics/SVG/1.1/DTD/svg11.dtd"><svg t="1545201479495" class="icon" style="" viewBox="0 0 1024 1024" version="1.1" xmlns="http://www.w3.org/2000/svg" p-id="4531" xmlns:xlink="http://www.w3.org/1999/xlink" width="200" height="200"><defs><style type="text/css"></style></defs><path d="M968.548352 614.418432c0-124.667904-203.543552-233.57952-458.737664-233.57952-255.22688 0-458.737664 108.9024-458.737664 233.57952s203.50976 233.578496 458.737664 233.578496c255.194112 0 458.737664-108.910592 458.737664-233.578496z m51.073024 0c0 161.544192-230.147072 284.690432-509.810688 284.690432C230.11328 899.108864 0 775.97184 0 614.418432 0 452.864 230.11328 329.728 509.810688 329.728c279.66464 0 509.810688 123.14624 509.810688 284.690432z" p-id="4532"></path><path d="M460.292096 582.100992c3.84-21.878784 16.09728-40.85248 33.871872-53.301248 11.55584-8.091648 14.367744-24.026112 6.28224-35.590144-8.086528-11.564032-24.008704-14.377984-35.56352-6.286336-28.786688 20.159488-48.685056 50.962432-54.893568 86.335488-2.440192 13.9008 6.843392 27.150336 20.733952 29.591552 13.89056 2.44224 27.128832-6.847488 29.569024-20.749312z" p-id="4533"></path><path d="M682.94656 594.01216c0-89.438208-72.479744-161.973248-161.850368-161.973248-89.358336 0-161.799168 72.522752-161.799168 161.972224s72.440832 161.972224 161.799168 161.972224c89.370624 0 161.850368-72.534016 161.850368-161.972224z m51.073024 0c0 117.664768-95.345664 213.082112-212.923392 213.082112C403.526656 807.094272 308.224 711.684096 308.224 594.01216 308.224 476.338176 403.526656 380.928 521.096192 380.928c117.577728 0 212.923392 95.417344 212.923392 213.08416zM729.363456 235.583488c-6.665216 12.438528-22.144 17.115136-34.573312 10.4448-12.429312-6.669312-17.101824-22.15936-10.437632-34.598912l27.222016-50.804736c6.665216-12.438528 22.144-17.115136 34.573312-10.4448 12.429312 6.669312 17.101824 22.15936 10.436608 34.598912l-27.220992 50.804736z m190.130176 78.82752c-8.54528 11.22816-24.567808 13.398016-35.7888 4.845568-11.218944-8.551424-13.386752-24.58624-4.841472-35.8144l34.270208-45.029376c8.54528-11.22816 24.567808-13.398016 35.787776-4.845568 11.218944 8.551424 13.387776 24.58624 4.842496 35.8144l-34.270208 45.029376zM378.037248 211.429376c6.664192 12.438528 1.99168 27.9296-10.437632 34.598912-12.429312 6.670336-27.908096 1.993728-34.573312-10.4448l-27.222016-50.804736c-6.664192-12.438528-1.99168-27.9296 10.437632-34.598912 12.429312-6.670336 27.908096-1.993728 34.573312 10.4448l27.222016 50.804736zM183.54688 283.4432c8.54528 11.22816 6.377472 27.262976-4.842496 35.8144-11.219968 8.552448-27.242496 6.382592-35.787776-4.845568L108.6464 269.381632c-8.54528-11.22816-6.377472-27.262976 4.84352-35.8144 11.218944-8.552448 27.241472-6.382592 35.786752 4.845568l34.270208 45.029376z m322.10944-132.958208c0-14.113792 11.43296-25.555968 25.535488-25.555968 14.103552 0 25.536512 11.442176 25.536512 25.555968v56.835072c0 14.114816-11.43296 25.555968-25.536512 25.555968-14.102528 0-25.536512-11.441152-25.536512-25.555968v-56.835072z" p-id="4534"></path></svg>